HIERARCHY
ROOT Hips
{
	OFFSET 0.000000 0.000000 0.000000
	CHANNELS 6 Xposition Yposition Zposition Xrotation Yrotation Zrotation
	JOINT Thigh.L
	{
		OFFSET 0.055510 0.027394 -0.095006
		CHANNELS 3 Xrotation Yrotation Zrotation
		JOINT Shin.L
		{
			OFFSET 0.060051 0.006777 -0.412139
			CHANNELS 3 Xrotation Yrotation Zrotation
			JOINT Foot.L
			{
				OFFSET -0.042283 0.032148 -0.437493
				CHANNELS 3 Xrotation Yrotation Zrotation
				JOINT Toe.L
				{
					OFFSET 0.048154 -0.126422 -0.064326
					CHANNELS 3 Xrotation Yrotation Zrotation
					End Site
					{
						OFFSET 0.000000 0.050000 0.000000
					}
				}
			}
		}
	}
	JOINT Thigh.R
	{
		OFFSET -0.060661 0.021778 -0.107546
		CHANNELS 3 Xrotation Yrotation Zrotation
		JOINT Shin.R
		{
			OFFSET -0.049032 0.014767 -0.393589
			CHANNELS 3 Xrotation Yrotation Zrotation
			JOINT Foot.R
			{
				OFFSET 0.014205 0.020259 -0.446530
				CHANNELS 3 Xrotation Yrotation Zrotation
				JOINT Toe.R
				{
					OFFSET -0.039590 -0.127255 -0.064170
					CHANNELS 3 Xrotation Yrotation Zrotation
					End Site
					{
						OFFSET 0.000000 0.050000 0.000000
					}
				}
			}
		}
	}
	JOINT Spine
	{
		OFFSET -0.002667 0.027196 0.114116
		CHANNELS 3 Xrotation Yrotation Zrotation
		JOINT Spine.2
		{
			OFFSET 0.009088 0.006352 0.141469
			CHANNELS 3 Xrotation Yrotation Zrotation
			JOINT Chest
			{
				OFFSET -0.010919 -0.023574 0.056157
				CHANNELS 3 Xrotation Yrotation Zrotation
				JOINT Neck
				{
					OFFSET -0.012181 0.026227 0.169959
					CHANNELS 3 Xrotation Yrotation Zrotation
					JOINT Head
					{
						OFFSET 0.025448 -0.020462 0.168612
						CHANNELS 3 Xrotation Yrotation Zrotation
						End Site
						{
							OFFSET 0.000000 0.050000 0.000000
						}
					}
				}
				JOINT Clavicle.L
				{
					OFFSET 0.047548 0.004719 0.087525
					CHANNELS 3 Xrotation Yrotation Zrotation
					JOINT UpperArm.L
					{
						OFFSET 0.127315 0.013847 0.058762
						CHANNELS 3 Xrotation Yrotation Zrotation
						JOINT ForeArm.L
						{
							OFFSET 0.270058 0.042962 -0.075729
							CHANNELS 3 Xrotation Yrotation Zrotation
							JOINT Hand.L
							{
								OFFSET 0.273662 0.000845 0.022567
								CHANNELS 3 Xrotation Yrotation Zrotation
								JOINT Thumb1.L
								{
									OFFSET 0.154593 0.000369 0.009862
									CHANNELS 3 Xrotation Yrotation Zrotation
									JOINT Thumb2.L
									{
										OFFSET 0.029898 0.000092 0.002466
										CHANNELS 3 Xrotation Yrotation Zrotation
										End Site
										{
											OFFSET 0.024915 0.000077 0.002055
										}
									}
								}
								JOINT Index1.L
								{
									OFFSET 0.137593 0.000369 0.009862
									CHANNELS 3 Xrotation Yrotation Zrotation
									JOINT Index2.L
									{
										OFFSET 0.029898 0.000092 0.002466
										CHANNELS 3 Xrotation Yrotation Zrotation
										JOINT Index3.L
										{
											OFFSET 0.021925 0.000068 0.001808
											CHANNELS 3 Xrotation Yrotation Zrotation
											End Site
											{
												OFFSET 0.017939 0.000055 0.001479
											}
										}
									}
								}
								JOINT Middle1.L
								{
									OFFSET 0.119593 0.000369 0.009862
									CHANNELS 3 Xrotation Yrotation Zrotation
									JOINT Middle2.L
									{
										OFFSET 0.030895 0.000095 0.002548
										CHANNELS 3 Xrotation Yrotation Zrotation
										JOINT Middle3.L
										{
											OFFSET 0.021925 0.000068 0.001808
											CHANNELS 3 Xrotation Yrotation Zrotation
											End Site
											{
												OFFSET 0.017939 0.000055 0.001479
											}
										}
									}
								}
								JOINT Ring1.L
								{
									OFFSET 0.101593 0.000369 0.009862
									CHANNELS 3 Xrotation Yrotation Zrotation
									JOINT Ring2.L
									{
										OFFSET 0.028902 0.000089 0.002383
										CHANNELS 3 Xrotation Yrotation Zrotation
										JOINT Ring3.L
										{
											OFFSET 0.019932 0.000062 0.001644
											CHANNELS 3 Xrotation Yrotation Zrotation
											End Site
											{
												OFFSET 0.016942 0.000052 0.001397
											}
										}
									}
								}
								JOINT Pinky1.L
								{
									OFFSET 0.085593 0.000369 0.009862
									CHANNELS 3 Xrotation Yrotation Zrotation
									JOINT Pinky2.L
									{
										OFFSET 0.023919 0.000074 0.001972
										CHANNELS 3 Xrotation Yrotation Zrotation
										JOINT Pinky3.L
										{
											OFFSET 0.016942 0.000052 0.001397
											CHANNELS 3 Xrotation Yrotation Zrotation
											End Site
											{
												OFFSET 0.013953 0.000043 0.001151
											}
										}
									}
								}
							}
						}
					}
				}
				JOINT Clavicle.R
				{
					OFFSET -0.048428 0.010863 0.086664
					CHANNELS 3 Xrotation Yrotation Zrotation
					JOINT UpperArm.R
					{
						OFFSET -0.110398 0.010291 0.054870
						CHANNELS 3 Xrotation Yrotation Zrotation
						JOINT ForeArm.R
						{
							OFFSET -0.288430 0.027586 -0.039891
							CHANNELS 3 Xrotation Yrotation Zrotation
							JOINT Hand.R
							{
								OFFSET -0.269971 0.014373 -0.005266
								CHANNELS 3 Xrotation Yrotation Zrotation
								JOINT Thumb1.R
								{
									OFFSET -0.154808 0.006378 -0.002337
									CHANNELS 3 Xrotation Yrotation Zrotation
									JOINT Thumb2.R
									{
										OFFSET -0.029952 0.001595 -0.000584
										CHANNELS 3 Xrotation Yrotation Zrotation
										End Site
										{
											OFFSET -0.024960 0.001329 -0.000487
										}
									}
								}
								JOINT Index1.R
								{
									OFFSET -0.137808 0.006378 -0.002337
									CHANNELS 3 Xrotation Yrotation Zrotation
									JOINT Index2.R
									{
										OFFSET -0.029952 0.001595 -0.000584
										CHANNELS 3 Xrotation Yrotation Zrotation
										JOINT Index3.R
										{
											OFFSET -0.021965 0.001169 -0.000428
											CHANNELS 3 Xrotation Yrotation Zrotation
											End Site
											{
												OFFSET -0.017971 0.000957 -0.000351
											}
										}
									}
								}
								JOINT Middle1.R
								{
									OFFSET -0.119808 0.006378 -0.002337
									CHANNELS 3 Xrotation Yrotation Zrotation
									JOINT Middle2.R
									{
										OFFSET -0.030950 0.001648 -0.000604
										CHANNELS 3 Xrotation Yrotation Zrotation
										JOINT Middle3.R
										{
											OFFSET -0.021965 0.001169 -0.000428
											CHANNELS 3 Xrotation Yrotation Zrotation
											End Site
											{
												OFFSET -0.017971 0.000957 -0.000351
											}
										}
									}
								}
								JOINT Ring1.R
								{
									OFFSET -0.101808 0.006378 -0.002337
									CHANNELS 3 Xrotation Yrotation Zrotation
									JOINT Ring2.R
									{
										OFFSET -0.028953 0.001541 -0.000565
										CHANNELS 3 Xrotation Yrotation Zrotation
										JOINT Ring3.R
										{
											OFFSET -0.019968 0.001063 -0.000390
											CHANNELS 3 Xrotation Yrotation Zrotation
											End Site
											{
												OFFSET -0.016973 0.000904 -0.000331
											}
										}
									}
								}
								JOINT Pinky1.R
								{
									OFFSET -0.085808 0.006378 -0.002337
									CHANNELS 3 Xrotation Yrotation Zrotation
									JOINT Pinky2.R
									{
										OFFSET -0.023962 0.001276 -0.000467
										CHANNELS 3 Xrotation Yrotation Zrotation
										JOINT Pinky3.R
										{
											OFFSET -0.016973 0.000904 -0.000331
											CHANNELS 3 Xrotation Yrotation Zrotation
											End Site
											{
												OFFSET -0.013978 0.000744 -0.000273
											}
										}
									}
								}
							}
						}
					}
				}
			}
		}
	}
}
MOTION
Frames: 4
Frame Time: 0.04166667
0.034400 1.034724 1.063130 -6.029403 -1.324857 -2.122268 -13.549239 5.141521 -4.936399 23.795407 4.176543 -7.129165 -7.998622 -9.608711 13.817039 -0.947427 -2.145414 -1.180189 -10.098394 2.710678 0.889030 61.947769 -1.758568 3.758059 4.260591 -3.681746 -7.117142 -0.596292 -1.629853 0.788537 11.510467 3.579726 2.766278 -3.794851 0.070385 -1.088466 4.811467 1.357549 0.116627 6.832448 1.167374 4.502110 0.856596 -0.320684 3.002301 1.472602 20.241993 -2.765746 22.566684 44.194425 -21.173274 17.519200 -0.749994 -20.001449 0.132342 -3.797487 -12.904728 0.000000 0.000000 0.000000 0.000000 0.000000 0.000000 0.000000 0.000000 0.000000 0.000000 0.000000 0.000000 0.000000 0.000000 0.000000 0.000000 0.000000 0.000000 0.000000 0.000000 0.000000 0.000000 0.000000 0.000000 0.000000 0.000000 0.000000 0.000000 0.000000 0.000000 0.000000 0.000000 0.000000 0.000000 0.000000 0.000000 0.000000 0.000000 0.000000 0.000000 0.000000 0.000000 0.312803 -18.444674 7.149912 28.276129 -46.232025 26.217337 11.311033 2.372942 34.163525 -7.624077 5.497093 12.669424 0.000000 0.000000 0.000000 0.000000 0.000000 0.000000 0.000000 0.000000 0.000000 0.000000 0.000000 0.000000 0.000000 0.000000 0.000000 0.000000 0.000000 0.000000 0.000000 0.000000 0.000000 0.000000 0.000000 0.000000 0.000000 0.000000 0.000000 0.000000 0.000000 0.000000 0.000000 0.000000 0.000000 0.000000 0.000000 0.000000 0.000000 0.000000 0.000000 0.000000 0.000000 0.000000
0.030871 1.034264 1.069187 -7.179728 -0.855063 -0.957980 -8.578849 5.235634 -4.280011 20.803037 2.993389 -9.221681 -9.414391 -9.654605 13.960003 -0.980397 -2.314240 -1.152935 -15.139796 2.216318 1.552633 63.048801 -3.087956 2.690258 0.796508 -2.142927 -8.174906 -0.495387 -1.634991 0.831305 12.079672 3.217194 1.118349 -3.687497 -0.470160 -1.178575 4.533369 1.215489 -0.224964 6.839311 1.749688 4.938853 0.826492 0.153572 3.256892 1.098818 19.856213 -3.459838 22.860355 43.698062 -23.881238 17.089528 -1.357416 -21.316164 0.184449 -4.653454 -12.919088 0.000000 0.000000 0.000000 0.000000 0.000000 0.000000 0.000000 0.000000 0.000000 0.000000 0.000000 0.000000 0.000000 0.000000 0.000000 0.000000 0.000000 0.000000 0.000000 0.000000 0.000000 0.000000 0.000000 0.000000 0.000000 0.000000 0.000000 0.000000 0.000000 0.000000 0.000000 0.000000 0.000000 0.000000 0.000000 0.000000 0.000000 0.000000 0.000000 0.000000 0.000000 0.000000 0.620499 -18.971259 6.992092 28.452454 -46.307728 25.221785 12.451130 2.066505 32.013874 -6.149925 5.051893 12.496331 0.000000 0.000000 0.000000 0.000000 0.000000 0.000000 0.000000 0.000000 0.000000 0.000000 0.000000 0.000000 0.000000 0.000000 0.000000 0.000000 0.000000 0.000000 0.000000 0.000000 0.000000 0.000000 0.000000 0.000000 0.000000 0.000000 0.000000 0.000000 0.000000 0.000000 0.000000 0.000000 0.000000 0.000000 0.000000 0.000000 0.000000 0.000000 0.000000 0.000000 0.000000 0.000000
0.027463 1.032040 1.074440 -8.208770 -0.334576 0.280284 -3.167190 4.909220 -3.482141 16.867817 1.923294 -11.501142 -10.621459 -9.080859 13.516587 -0.931244 -2.366096 -1.091022 -19.306260 1.779895 2.016082 60.547044 -4.329906 1.461344 -2.118447 -1.458929 -8.723150 -0.402250 -1.672210 0.864551 12.786548 2.674545 -0.377377 -3.628073 -0.988770 -1.262419 4.268749 0.860235 -0.584133 6.764866 2.314284 5.032120 0.794204 0.405859 3.411859 0.622689 19.137272 -3.982909 23.073315 43.432022 -26.873467 16.144009 -1.718765 -22.645196 -0.892762 -5.376704 -13.008624 0.000000 0.000000 0.000000 0.000000 0.000000 0.000000 0.000000 0.000000 0.000000 0.000000 0.000000 0.000000 0.000000 0.000000 0.000000 0.000000 0.000000 0.000000 0.000000 0.000000 0.000000 0.000000 0.000000 0.000000 0.000000 0.000000 0.000000 0.000000 0.000000 0.000000 0.000000 0.000000 0.000000 0.000000 0.000000 0.000000 0.000000 0.000000 0.000000 0.000000 0.000000 0.000000 0.699123 -19.024827 6.501398 28.630949 -46.485024 24.311754 13.246626 1.652593 30.033471 -5.250171 4.680281 12.268952 0.000000 0.000000 0.000000 0.000000 0.000000 0.000000 0.000000 0.000000 0.000000 0.000000 0.000000 0.000000 0.000000 0.000000 0.000000 0.000000 0.000000 0.000000 0.000000 0.000000 0.000000 0.000000 0.000000 0.000000 0.000000 0.000000 0.000000 0.000000 0.000000 0.000000 0.000000 0.000000 0.000000 0.000000 0.000000 0.000000 0.000000 0.000000 0.000000 0.000000 0.000000 0.000000
0.025551 1.029939 1.077439 -8.911392 0.041457 1.396746 2.041195 4.453294 -2.711408 12.857609 1.103216 -13.812811 -11.822774 -8.421325 12.777157 -0.838013 -2.236251 -1.010879 -22.230430 1.370717 2.314434 54.692849 -5.059701 -0.223895 -3.481869 -1.610216 -9.461763 -0.394054 -1.775778 0.878985 13.437988 2.179798 -1.702084 -3.681169 -1.387115 -1.350206 4.134995 0.453728 -0.996016 6.586476 2.792917 4.945081 0.860030 0.371320 3.590948 0.133408 18.247330 -4.359657 22.973804 43.179101 -29.670943 14.979241 -1.945221 -24.344460 -2.593324 -6.030382 -13.237254 0.000000 0.000000 0.000000 0.000000 0.000000 0.000000 0.000000 0.000000 0.000000 0.000000 0.000000 0.000000 0.000000 0.000000 0.000000 0.000000 0.000000 0.000000 0.000000 0.000000 0.000000 0.000000 0.000000 0.000000 0.000000 0.000000 0.000000 0.000000 0.000000 0.000000 0.000000 0.000000 0.000000 0.000000 0.000000 0.000000 0.000000 0.000000 0.000000 0.000000 0.000000 0.000000 0.730004 -18.835228 5.838969 28.932807 -46.698344 23.548848 13.408649 1.249360 28.772099 -4.759113 4.342582 11.866026 0.000000 0.000000 0.000000 0.000000 0.000000 0.000000 0.000000 0.000000 0.000000 0.000000 0.000000 0.000000 0.000000 0.000000 0.000000 0.000000 0.000000 0.000000 0.000000 0.000000 0.000000 0.000000 0.000000 0.000000 0.000000 0.000000 0.000000 0.000000 0.000000 0.000000 0.000000 0.000000 0.000000 0.000000 0.000000 0.000000 0.000000 0.000000 0.000000 0.000000 0.000000 0.000000
